<svg id="Ebene_1" data-name="Ebene 1" xmlns="http://www.w3.org/2000/svg" xmlns:xlink="http://www.w3.org/1999/xlink" viewBox="0 0 537.35 137.94"><defs><style>.cls-1{fill:none;}.cls-2{fill:#f39435;}.cls-3{fill:#010101;opacity:0.15;}.cls-4{clip-path:url(#clip-path);}.cls-5{fill:#fff;}</style><clipPath id="clip-path" transform="translate(-140.41 -230.91)"><rect class="cls-1" x="133.29" y="230.96" width="124.21" height="124.21"/></clipPath></defs><title>FuzeScreen</title><text x="-140.41" y="-230.91"/><path class="cls-2" d="M250.38,292.69a55,55,0,1,1-55-55,55,55,0,0,1,55,55" transform="translate(-140.41 -230.91)"/><path class="cls-3" d="M222.85,263.24H191.24a1.22,1.22,0,0,0-1.22,1.21v13.63a1.22,1.22,0,0,0,1.22,1.21h31.61a1.21,1.21,0,0,0,1.21-1.21V264.45A1.22,1.22,0,0,0,222.85,263.24Zm-31,9.23a.5.5,0,0,1-.5.49h-.16a.49.49,0,0,1-.5-.49V270.3a.5.5,0,0,1,.5-.5h.16a.5.5,0,0,1,.5.5Zm31.3.86a.32.32,0,0,1-.32.31h-.06a.31.31,0,0,1-.32-.31v-3.89a.32.32,0,0,1,.32-.32.38.38,0,0,1,.38.38Z" transform="translate(-140.41 -230.91)"/><path class="cls-3" d="M187.45,263.28H173.82a1.22,1.22,0,0,0-1.21,1.21v28.84a1.22,1.22,0,0,0,1.21,1.22h13.63a1.22,1.22,0,0,0,1.21-1.22V264.49A1.21,1.21,0,0,0,187.45,263.28Zm-5.12,30.07a.49.49,0,0,1-.49.5h-2.18a.49.49,0,0,1-.49-.5v-.16a.5.5,0,0,1,.49-.5h2.18a.5.5,0,0,1,.49.5Zm.33-28.44h-3.82a.35.35,0,1,1,0-.7h3.82a.35.35,0,0,1,0,.7Z" transform="translate(-140.41 -230.91)"/><path class="cls-3" d="M187.45,295.67H173.82a1.22,1.22,0,0,0-1.21,1.21v28.84a1.21,1.21,0,0,0,1.21,1.21h13.63a1.21,1.21,0,0,0,1.21-1.21V296.88A1.21,1.21,0,0,0,187.45,295.67Zm-5.12,30.07a.49.49,0,0,1-.49.5h-2.18a.49.49,0,0,1-.49-.5v-.16a.49.49,0,0,1,.49-.5h2.18a.49.49,0,0,1,.49.5Zm.33-28.45h-3.82a.35.35,0,1,1,0-.69h3.82a.35.35,0,1,1,0,.69Z" transform="translate(-140.41 -230.91)"/><path class="cls-3" d="M218.62,287.67H191.08a1.21,1.21,0,0,0-1.21,1.21V300.8a1.22,1.22,0,0,0,1.21,1.21h27.54a1.22,1.22,0,0,0,1.22-1.21V288.88A1.22,1.22,0,0,0,218.62,287.67Zm-27.12,8.19a.49.49,0,0,1-.49.49h0a.5.5,0,0,1-.5-.49V294a.51.51,0,0,1,.5-.5h0a.5.5,0,0,1,.49.5Zm27.56.79a.31.31,0,0,1-.31.31.3.3,0,0,1-.3-.31v-3.43a.3.3,0,0,1,.3-.3.31.31,0,0,1,.31.3Z" transform="translate(-140.41 -230.91)"/><g class="cls-4"><path class="cls-5" d="M221.72,261.94H190.11a1.21,1.21,0,0,0-1.21,1.21v13.64a1.21,1.21,0,0,0,1.21,1.21h31.61a1.21,1.21,0,0,0,1.21-1.21V263.15A1.21,1.21,0,0,0,221.72,261.94Zm-31,9.23a.5.5,0,0,1-.5.5h-.16a.5.5,0,0,1-.5-.5V269a.5.5,0,0,1,.5-.5h.16a.5.5,0,0,1,.5.5Zm31.3.86a.32.32,0,0,1-.32.31h-.06a.31.31,0,0,1-.32-.31v-3.89a.32.32,0,0,1,.32-.32.38.38,0,0,1,.38.38Z" transform="translate(-140.41 -230.91)"/><path class="cls-5" d="M186.32,262H172.69a1.21,1.21,0,0,0-1.21,1.21V292a1.22,1.22,0,0,0,1.21,1.21h13.63a1.21,1.21,0,0,0,1.21-1.21V263.2A1.21,1.21,0,0,0,186.32,262Zm-5.12,30.07a.49.49,0,0,1-.49.49h-2.17a.49.49,0,0,1-.5-.49v-.17a.5.5,0,0,1,.5-.5h2.17a.5.5,0,0,1,.49.5Zm.33-28.45h-3.82a.35.35,0,1,1,0-.7h3.82a.35.35,0,1,1,0,.7Z" transform="translate(-140.41 -230.91)"/><path class="cls-5" d="M186.32,294.37H172.69a1.22,1.22,0,0,0-1.21,1.21v28.84a1.21,1.21,0,0,0,1.21,1.21h13.63a1.21,1.21,0,0,0,1.21-1.21V295.58A1.21,1.21,0,0,0,186.32,294.37Zm-5.12,30.07a.49.49,0,0,1-.49.5h-2.17a.5.5,0,0,1-.5-.5v-.16a.5.5,0,0,1,.5-.5h2.17a.49.49,0,0,1,.49.5Zm.33-28.45h-3.82a.35.35,0,1,1,0-.69h3.82a.35.35,0,1,1,0,.69Z" transform="translate(-140.41 -230.91)"/><path class="cls-5" d="M217.5,286.37H190a1.21,1.21,0,0,0-1.21,1.21V299.5a1.21,1.21,0,0,0,1.21,1.21H217.5a1.21,1.21,0,0,0,1.21-1.21V287.58A1.21,1.21,0,0,0,217.5,286.37Zm-27.13,8.19a.49.49,0,0,1-.49.49h0a.5.5,0,0,1-.5-.49v-1.84a.5.5,0,0,1,.5-.49h0a.49.49,0,0,1,.49.49Zm27.56.79a.31.31,0,0,1-.31.31.3.3,0,0,1-.3-.31v-3.42a.3.3,0,0,1,.3-.31.31.31,0,0,1,.31.31Z" transform="translate(-140.41 -230.91)"/></g><path class="cls-5" d="M308.92,278.77v13.79h21.89v7.12H308.92V317h-8.41V271.71h33.08v7.06Z" transform="translate(-140.41 -230.91)"/><path class="cls-5" d="M373.47,282.46V317h-7.7v-4.4a13,13,0,0,1-4.86,3.59,15.62,15.62,0,0,1-6.28,1.26q-6.93,0-10.91-3.85c-2.65-2.56-4-6.38-4-11.42V282.46h8.09V301.1q0,4.66,2.11,7a7.68,7.68,0,0,0,6,2.3,9.05,9.05,0,0,0,6.89-2.68q2.56-2.69,2.56-7.74V282.46Z" transform="translate(-140.41 -230.91)"/><path class="cls-5" d="M411.09,310.56V317H381.24v-5.11l19-23H381.63v-6.47h28.94v5.11l-19,23Z" transform="translate(-140.41 -230.91)"/><path class="cls-5" d="M450.39,302.33H423.26a9.38,9.38,0,0,0,3.72,6.06,12.2,12.2,0,0,0,7.48,2.23,12.61,12.61,0,0,0,9.39-3.75l4.33,5a14.51,14.51,0,0,1-5.89,4.21,23.4,23.4,0,0,1-18.06-.84,16.33,16.33,0,0,1-6.7-6.31,17.78,17.78,0,0,1-2.36-9.16,18.12,18.12,0,0,1,2.29-9.1,16.33,16.33,0,0,1,6.38-6.31,18.6,18.6,0,0,1,9.19-2.27,18.27,18.27,0,0,1,9,2.23,15.9,15.9,0,0,1,6.21,6.28,19.05,19.05,0,0,1,2.23,9.36C450.51,300.5,450.47,301.3,450.39,302.33Zm-23.93-11.49a9.72,9.72,0,0,0-3.27,6.12h19.62a9.47,9.47,0,0,0-9.78-8.42A9.77,9.77,0,0,0,426.46,290.84Z" transform="translate(-140.41 -230.91)"/><path class="cls-5" d="M463,316.19a21.12,21.12,0,0,1-7.74-3.95l2.91-6.54a22.85,22.85,0,0,0,6.83,3.59,24.83,24.83,0,0,0,8.13,1.4q5.06,0,7.54-1.62a4.9,4.9,0,0,0,2.49-4.28,4.12,4.12,0,0,0-1.39-3.2,9.7,9.7,0,0,0-3.53-2q-2.13-.72-5.82-1.62a67.87,67.87,0,0,1-8.39-2.46,13.89,13.89,0,0,1-5.5-3.85,10.41,10.41,0,0,1-2.3-7.09,12.07,12.07,0,0,1,2-6.83,13.82,13.82,0,0,1,6.15-4.89,24.9,24.9,0,0,1,10.07-1.82,32.6,32.6,0,0,1,8.16,1,22.41,22.41,0,0,1,6.92,3l-2.65,6.54a26.33,26.33,0,0,0-6.22-2.66,23.35,23.35,0,0,0-6.28-.9q-5,0-7.41,1.68a5.19,5.19,0,0,0-2.43,4.47,4,4,0,0,0,1.4,3.17,9.91,9.91,0,0,0,3.52,1.94q2.14.72,5.83,1.62a62,62,0,0,1,8.29,2.43,14.08,14.08,0,0,1,5.53,3.85,10.12,10.12,0,0,1,2.3,7,11.93,11.93,0,0,1-2,6.8,13.89,13.89,0,0,1-6.18,4.86,25.3,25.3,0,0,1-10.1,1.81A34.64,34.64,0,0,1,463,316.19Z" transform="translate(-140.41 -230.91)"/><path class="cls-5" d="M505.22,315.22a16.69,16.69,0,0,1-6.67-6.31,17.7,17.7,0,0,1-2.39-9.16,17.52,17.52,0,0,1,2.39-9.13,16.74,16.74,0,0,1,6.64-6.28,20.23,20.23,0,0,1,9.68-2.27,18.68,18.68,0,0,1,9,2.07,13.5,13.5,0,0,1,5.79,6l-6.21,3.62a10,10,0,0,0-3.73-3.59,10.85,10.85,0,0,0-12.4,1.75,11.94,11.94,0,0,0,0,15.73,10.9,10.9,0,0,0,12.43,1.75,10,10,0,0,0,3.73-3.59l6.21,3.62a14,14,0,0,1-5.86,6,18.29,18.29,0,0,1-8.9,2.1A20.3,20.3,0,0,1,505.22,315.22Z" transform="translate(-140.41 -230.91)"/><path class="cls-5" d="M556.63,282.07v7.7a11.18,11.18,0,0,0-1.88-.19,9.79,9.79,0,0,0-7.38,2.75q-2.65,2.76-2.66,7.93V317h-8.09V282.46h7.71v5.05Q547.82,282.07,556.63,282.07Z" transform="translate(-140.41 -230.91)"/><path class="cls-5" d="M595.54,302.33H568.41a9.42,9.42,0,0,0,3.72,6.06,12.2,12.2,0,0,0,7.48,2.23,12.61,12.61,0,0,0,9.39-3.75l4.34,5a14.61,14.61,0,0,1-5.9,4.21,23.4,23.4,0,0,1-18.06-.84,16.4,16.4,0,0,1-6.7-6.31,17.78,17.78,0,0,1-2.36-9.16,18,18,0,0,1,2.3-9.1,16.24,16.24,0,0,1,6.37-6.31,18.64,18.64,0,0,1,9.2-2.27,18.26,18.26,0,0,1,9,2.23,15.9,15.9,0,0,1,6.21,6.28,19.06,19.06,0,0,1,2.24,9.36C595.67,300.5,595.62,301.3,595.54,302.33Zm-23.92-11.49a9.63,9.63,0,0,0-3.27,6.12H588a9.5,9.5,0,0,0-3.17-6.08,9.62,9.62,0,0,0-6.6-2.34A9.77,9.77,0,0,0,571.62,290.84Z" transform="translate(-140.41 -230.91)"/><path class="cls-5" d="M635.81,302.33H608.68a9.42,9.42,0,0,0,3.72,6.06,12.2,12.2,0,0,0,7.48,2.23,12.61,12.61,0,0,0,9.39-3.75l4.34,5a14.61,14.61,0,0,1-5.9,4.21,23.4,23.4,0,0,1-18.06-.84,16.4,16.4,0,0,1-6.7-6.31,17.78,17.78,0,0,1-2.36-9.16,18,18,0,0,1,2.3-9.1,16.24,16.24,0,0,1,6.37-6.31,18.64,18.64,0,0,1,9.2-2.27,18.26,18.26,0,0,1,9,2.23,15.9,15.9,0,0,1,6.21,6.28,19.06,19.06,0,0,1,2.24,9.36C635.94,300.5,635.89,301.3,635.81,302.33Zm-23.93-11.49a9.66,9.66,0,0,0-3.26,6.12h19.61a9.5,9.5,0,0,0-3.17-6.08,9.62,9.62,0,0,0-6.6-2.34A9.79,9.79,0,0,0,611.88,290.84Z" transform="translate(-140.41 -230.91)"/><path class="cls-5" d="M673.81,285.89q3.95,3.83,4,11.33V317h-8.09V298.26q0-4.53-2.14-6.83a7.86,7.86,0,0,0-6.08-2.3,9.34,9.34,0,0,0-7.06,2.68c-1.73,1.8-2.59,4.37-2.59,7.74V317h-8.09V282.46h7.7v4.47a12.64,12.64,0,0,1,5.05-3.63,18.19,18.19,0,0,1,6.86-1.23Q669.86,282.07,673.81,285.89Z" transform="translate(-140.41 -230.91)"/><rect class="cls-5" x="130.18" width="3.84" height="123.56"/></svg>